<svg width="96" height="96" viewBox="0 0 96 96" fill="none" xmlns="http://www.w3.org/2000/svg" role="img" aria-labelledby="title desc">
<title id="title">Partner Market Global logo</title>
<desc id="desc">Blue and orange global partnership mark with Partner Market Global text.</desc>
<defs>
  <linearGradient id="g1" x1="22" y1="9" x2="74" y2="71" gradientUnits="userSpaceOnUse">
    <stop stop-color="#0E7BFF"/>
    <stop offset="1" stop-color="#1746C7"/>
  </linearGradient>
  <linearGradient id="g2" x1="14" y1="72" x2="80" y2="39" gradientUnits="userSpaceOnUse">
    <stop stop-color="#FF7A1A"/>
    <stop offset="1" stop-color="#FFB12B"/>
  </linearGradient>
</defs>
<rect width="260" height="96" rx="20" fill="white" fill-opacity="0"/>
<path d="M49 8c21.2 0 38.4 15.6 38.4 34.8 0 19.3-17.2 35-38.4 35S10.6 62.1 10.6 42.8C10.6 23.6 27.8 8 49 8Z" fill="#EFF6FF"/>
<path d="M21.5 38.5c12.5-22.5 45.2-28.3 59.4-13.7C58.5 19.9 36.9 30.6 27.3 49.6c17.1-9.2 34.5-12.5 51.4-7.1C56 41 38.9 47.2 23.8 60.8c-2.8-7-3.5-14.4-2.3-22.3Z" fill="url(#g1)"/>
<path d="M15.1 66.9c17 3.8 37.8.5 61.9-9.4-9 13.2-25.7 21.4-43.4 18.7-8.5-1.3-14.9-4.4-18.5-9.3Z" fill="url(#g2)"/>
<path d="M34 55.7c11.8-8 28.5-11.6 50-10.8-3.9 4.4-9.1 8-15.3 10.7-10.2-2.4-21.7-2.4-34.7.1Z" fill="#00A6D6"/>

</svg>